<?xml version="1.0" standalone="no"?>
<!DOCTYPE svg PUBLIC "-//W3C//DTD SVG 20010904//EN"
 "http://www.w3.org/TR/2001/REC-SVG-20010904/DTD/svg10.dtd">
<svg version="1.0" xmlns="http://www.w3.org/2000/svg"
 width="1687.000000pt" height="1687.000000pt" viewBox="0 0 1687.000000 1687.000000"
 preserveAspectRatio="xMidYMid meet">
<metadata>
Created by potrace 1.11, written by Peter Selinger 2001-2013
</metadata>
<g transform="translate(0.000000,1687.000000) scale(0.100000,-0.100000)"
fill="#000000" stroke="none">
<path d="M8118 14775 c-2 -2 -50 -6 -108 -10 -58 -4 -123 -8 -145 -10 -22 -1
-67 -6 -100 -10 -33 -4 -71 -9 -85 -10 -105 -12 -144 -17 -163 -21 -31 -6 -64
-11 -127 -20 -30 -4 -57 -8 -60 -9 -48 -11 -71 -16 -100 -19 -19 -2 -42 -7
-50 -10 -8 -3 -31 -7 -50 -10 -19 -3 -62 -13 -95 -21 -33 -9 -69 -18 -80 -20
-11 -2 -30 -6 -42 -9 -13 -4 -31 -8 -40 -10 -10 -2 -45 -11 -78 -21 -114 -31
-130 -36 -153 -41 -12 -2 -47 -14 -77 -25 -30 -11 -59 -18 -65 -14 -5 3 -10 1
-10 -4 0 -6 -9 -11 -19 -11 -11 0 -23 -5 -26 -10 -4 -6 -11 -8 -16 -4 -5 3
-16 1 -23 -6 -8 -6 -22 -13 -32 -15 -26 -5 -162 -54 -199 -70 -16 -8 -33 -11
-37 -9 -4 3 -8 0 -8 -6 0 -6 -4 -8 -10 -5 -5 3 -10 2 -10 -3 0 -5 -6 -9 -12
-9 -7 0 -34 -10 -60 -21 -26 -12 -54 -22 -62 -22 -9 0 -16 -5 -16 -11 0 -6 -7
-9 -15 -6 -8 4 -17 2 -20 -2 -6 -10 -74 -44 -94 -47 -8 -2 -17 -8 -21 -14 -4
-7 -10 -11 -14 -11 -24 3 -46 0 -42 -7 2 -4 -23 -19 -57 -32 -34 -14 -66 -28
-72 -32 -29 -23 -184 -96 -190 -90 -5 4 -5 1 -1 -5 6 -11 -6 -18 -18 -10 -2 1
-13 -6 -23 -16 -11 -9 -23 -14 -26 -10 -4 3 -7 1 -7 -5 0 -7 -7 -12 -15 -12
-8 0 -15 -4 -15 -10 0 -5 -6 -10 -13 -10 -7 0 -29 -11 -50 -25 -20 -14 -42
-23 -49 -19 -7 4 -8 3 -4 -4 7 -11 -6 -17 -27 -13 -5 1 -6 -2 -3 -7 3 -5 -17
-19 -44 -33 -27 -13 -50 -27 -50 -31 0 -5 -5 -8 -10 -8 -16 0 -150 -92 -150
-103 0 -5 -7 -7 -15 -3 -8 3 -15 1 -15 -4 0 -6 -7 -10 -16 -10 -8 0 -12 -4 -9
-10 3 -5 1 -10 -6 -10 -6 0 -18 -8 -26 -17 -9 -11 -12 -12 -7 -3 4 8 -4 5 -18
-7 -13 -13 -30 -23 -38 -23 -7 0 -10 -3 -7 -6 4 -4 -6 -14 -22 -23 -16 -9 -42
-26 -58 -38 -95 -75 -118 -91 -127 -86 -5 3 -6 1 -3 -4 4 -6 -12 -23 -36 -39
-23 -15 -52 -38 -63 -51 -12 -13 -25 -23 -30 -23 -5 0 -19 -12 -31 -27 -13
-14 -23 -23 -23 -20 0 4 -15 -8 -33 -26 -17 -17 -31 -35 -29 -40 1 -5 -2 -6
-7 -2 -6 3 -25 -9 -44 -27 -19 -18 -53 -49 -77 -68 -24 -19 -53 -46 -64 -59
-38 -44 -48 -51 -57 -46 -5 4 -9 1 -9 -5 0 -14 -110 -120 -124 -120 -6 0 -4
-5 4 -10 13 -9 13 -10 0 -10 -8 0 -26 -13 -40 -30 -14 -16 -31 -30 -39 -30 -8
0 -11 -3 -8 -7 4 -3 -9 -21 -28 -40 -19 -19 -35 -39 -35 -44 0 -6 -4 -7 -10
-4 -5 3 -10 2 -10 -2 0 -10 -47 -67 -107 -129 -24 -25 -43 -47 -43 -51 0 -3
-8 -12 -17 -20 -10 -8 -11 -11 -3 -7 8 4 -6 -12 -30 -37 -50 -51 -85 -91 -109
-129 -8 -14 -24 -31 -33 -38 -10 -7 -18 -19 -18 -26 0 -7 -11 -23 -25 -36 -14
-13 -25 -29 -25 -37 0 -7 -4 -13 -9 -13 -4 0 -21 -19 -37 -42 -16 -24 -31 -45
-34 -48 -13 -12 -44 -66 -42 -72 1 -5 -5 -8 -14 -8 -8 0 -13 -4 -9 -9 3 -5 0
-15 -7 -23 -23 -24 -138 -196 -138 -206 0 -5 -7 -15 -15 -22 -8 -7 -12 -16 -9
-21 3 -5 1 -9 -4 -9 -5 0 -15 -13 -22 -30 -7 -16 -17 -27 -23 -23 -5 3 -7 2
-4 -4 4 -5 -9 -34 -28 -64 -18 -29 -31 -57 -29 -61 3 -5 1 -8 -5 -8 -6 0 -20
-20 -31 -44 -11 -25 -25 -48 -30 -51 -6 -4 -8 -10 -5 -15 3 -5 1 -11 -4 -14
-5 -3 -28 -45 -52 -93 -24 -49 -47 -89 -51 -91 -4 -2 -8 -9 -8 -15 0 -7 -18
-49 -40 -95 -22 -45 -40 -89 -40 -97 0 -8 -4 -15 -10 -15 -5 0 -10 -5 -10 -10
0 -6 -9 -32 -21 -58 -12 -26 -25 -56 -29 -67 -5 -11 -18 -42 -29 -69 -12 -27
-21 -55 -21 -62 0 -8 -4 -14 -10 -14 -5 0 -10 -11 -10 -24 0 -14 -5 -28 -10
-31 -6 -4 -8 -11 -5 -16 4 -5 1 -9 -4 -9 -6 0 -11 -10 -11 -23 0 -13 -5 -28
-12 -35 -7 -7 -9 -12 -6 -12 4 0 0 -16 -8 -35 -8 -19 -11 -35 -7 -35 5 0 3 -4
-3 -8 -13 -9 -45 -102 -39 -112 3 -5 0 -10 -5 -12 -6 -2 -12 -13 -13 -26 0
-12 -6 -22 -11 -22 -5 0 -7 -3 -3 -6 3 -3 1 -18 -5 -33 -5 -14 -12 -35 -14
-46 -2 -11 -12 -47 -23 -80 -11 -33 -21 -73 -24 -90 -2 -16 -11 -50 -20 -75
-8 -25 -18 -61 -21 -80 -3 -19 -11 -55 -19 -80 -8 -25 -13 -54 -11 -63 1 -9
-1 -17 -5 -17 -4 0 -7 -8 -8 -17 -4 -37 -10 -79 -16 -98 -8 -27 -19 -95 -20
-122 -1 -13 -3 -23 -6 -23 -4 0 -7 -10 -7 -22 -3 -45 -8 -83 -12 -92 -5 -9 -9
-37 -17 -121 -2 -22 -4 -40 -5 -40 -2 0 -12 -88 -13 -127 -1 -21 -4 -38 -7
-38 -3 0 -5 -25 -4 -55 0 -30 -2 -55 -5 -55 -4 0 -6 -33 -6 -73 1 -39 -1 -76
-4 -81 -2 -5 -5 -32 -5 -60 -1 -28 -5 -57 -10 -65 -5 -8 -5 -12 0 -9 5 4 9
-108 8 -270 0 -153 3 -294 6 -314 5 -25 4 -38 -4 -38 -7 0 -7 -3 -1 -8 9 -6
16 -73 19 -194 1 -21 3 -38 6 -38 3 0 6 -15 6 -33 2 -42 12 -152 14 -152 1 0
3 -11 4 -25 2 -14 6 -47 11 -75 8 -51 11 -71 18 -136 2 -20 6 -40 9 -45 3 -5
9 -31 12 -59 4 -27 10 -59 13 -70 4 -11 7 -29 8 -40 1 -11 4 -27 7 -35 8 -20
33 -153 30 -162 -1 -5 2 -8 7 -8 5 0 8 -12 6 -26 -1 -14 3 -31 9 -37 6 -7 11
-23 11 -37 0 -14 6 -33 14 -42 12 -15 12 -18 0 -18 -11 0 -11 -2 1 -10 8 -5
11 -10 7 -10 -4 0 -3 -8 2 -17 5 -10 12 -36 15 -58 4 -22 11 -44 16 -49 6 -6
10 -22 10 -36 0 -15 3 -30 7 -34 7 -6 11 -24 15 -58 1 -9 5 -15 9 -12 12 7 18
-23 6 -35 -8 -8 -8 -11 1 -11 7 0 12 -9 12 -20 0 -11 5 -20 12 -20 6 0 9 -3 6
-6 -4 -3 0 -21 8 -40 8 -19 15 -37 15 -41 1 -5 6 -19 12 -33 9 -23 13 -34 20
-65 1 -5 6 -16 10 -22 5 -7 5 -13 2 -13 -3 0 1 -12 9 -28 18 -34 30 -65 28
-74 -1 -5 3 -8 10 -8 6 0 9 -3 5 -6 -3 -3 6 -32 20 -63 14 -31 32 -75 40 -98
8 -24 20 -43 26 -43 6 0 8 -3 4 -6 -3 -4 0 -19 9 -35 8 -16 11 -29 8 -29 -4 0
1 -8 10 -19 9 -10 18 -28 19 -40 1 -11 5 -21 10 -21 5 0 6 -8 3 -17 -4 -10 -4
-14 0 -10 8 8 84 -136 84 -159 0 -8 5 -14 10 -14 6 0 10 -6 10 -14 0 -8 6 -21
13 -28 15 -15 16 -15 23 -45 4 -13 11 -23 16 -23 6 0 8 -6 5 -14 -3 -7 4 -21
14 -30 11 -9 17 -21 14 -26 -3 -6 -1 -10 4 -10 6 0 11 -7 11 -15 0 -8 5 -15
10 -15 6 0 10 -6 10 -13 0 -7 15 -35 33 -63 18 -27 31 -56 29 -63 -3 -8 0 -11
7 -7 6 4 11 1 11 -8 0 -9 5 -16 11 -16 5 0 7 -4 4 -10 -3 -5 -1 -10 5 -10 6 0
8 -4 5 -10 -3 -5 -2 -10 3 -10 5 0 14 -11 20 -25 7 -14 16 -31 22 -38 22 -26
80 -120 80 -128 0 -5 4 -9 10 -9 5 0 12 -11 16 -25 3 -14 10 -22 15 -19 5 3 9
-2 9 -10 0 -9 5 -16 10 -16 6 0 10 -7 10 -15 0 -8 5 -15 12 -15 6 0 9 -3 5 -6
-3 -4 -1 -12 6 -19 7 -7 19 -23 27 -35 8 -12 29 -41 47 -65 18 -23 30 -45 28
-49 -3 -3 -2 -4 1 -2 8 6 52 -37 47 -47 -2 -4 3 -10 12 -13 12 -5 13 -9 5 -14
-9 -5 -6 -10 8 -14 12 -4 23 -15 27 -24 3 -9 23 -37 45 -62 22 -25 42 -53 46
-63 3 -9 10 -15 15 -12 5 4 9 -1 9 -10 0 -9 4 -13 10 -10 6 3 10 -1 10 -10 0
-9 4 -13 10 -10 5 3 10 -1 10 -9 0 -8 8 -20 18 -25 9 -6 13 -11 9 -11 -5 0 14
-22 41 -50 27 -27 47 -52 44 -55 -3 -3 2 -5 11 -5 10 0 16 -3 16 -7 -4 -22 3
-33 18 -33 9 0 14 -3 10 -6 -7 -7 17 -34 31 -34 10 0 26 -29 24 -42 -1 -4 6
-4 15 -1 10 4 14 2 10 -4 -4 -6 16 -30 43 -54 27 -23 47 -47 44 -51 -3 -4 2
-8 11 -8 9 0 13 -4 10 -10 -3 -5 -1 -10 5 -10 14 0 80 -66 80 -80 0 -5 5 -12
12 -16 7 -5 8 -3 3 7 -7 11 -5 11 11 -1 26 -21 34 -32 27 -44 -3 -5 -1 -6 5
-2 7 4 12 2 12 -4 0 -6 8 -14 18 -17 25 -10 42 -29 34 -38 -4 -5 -1 -5 6 -1 7
4 15 1 18 -8 3 -9 12 -16 20 -16 8 0 14 -7 14 -15 0 -8 6 -15 14 -15 8 0 17
-7 20 -16 3 -8 10 -13 15 -10 5 3 11 -4 14 -16 4 -12 9 -19 13 -16 3 4 20 -7
36 -23 17 -16 35 -29 40 -29 5 0 6 -4 3 -10 -3 -5 -2 -10 3 -10 4 0 18 -9 30
-20 12 -12 22 -18 22 -15 0 3 12 -6 26 -20 14 -14 29 -23 35 -20 5 3 6 -1 3
-9 -4 -10 -1 -16 9 -16 9 0 27 -10 40 -22 32 -31 66 -58 73 -58 3 0 11 -6 18
-12 7 -7 24 -21 37 -31 13 -9 51 -37 84 -62 33 -25 66 -45 73 -45 6 0 12 -4
12 -10 0 -5 6 -10 14 -10 8 0 18 -5 22 -12 5 -7 2 -8 -7 -3 -8 5 -11 4 -6 -1
5 -5 13 -10 18 -10 5 -1 14 -2 20 -3 5 0 7 -6 3 -13 -4 -6 -3 -8 3 -5 6 4 28
-7 49 -23 21 -16 43 -30 47 -30 4 0 17 -9 29 -20 12 -11 28 -20 35 -20 7 0 13
-5 13 -11 0 -5 4 -8 9 -5 5 3 11 -1 15 -9 3 -8 12 -15 20 -15 8 0 22 -8 32
-17 9 -10 24 -18 33 -18 9 0 15 -5 14 -12 -2 -7 4 -10 12 -7 8 4 15 2 15 -2 0
-9 47 -33 63 -34 4 0 19 -11 34 -24 15 -14 31 -22 36 -19 5 3 12 1 16 -4 10
-15 139 -82 145 -76 3 4 6 1 6 -5 0 -7 7 -12 15 -12 8 0 15 -5 15 -11 0 -5 4
-8 9 -4 5 3 16 -1 24 -9 8 -8 17 -12 21 -9 3 4 6 1 6 -5 0 -7 6 -12 13 -12 7
0 30 -10 52 -21 22 -12 41 -21 43 -20 1 1 24 -10 52 -24 27 -14 56 -25 65 -25
8 0 15 -5 15 -11 0 -6 7 -9 15 -5 8 3 19 -2 24 -12 6 -9 11 -14 11 -9 0 4 17
-1 39 -12 21 -11 41 -17 45 -14 3 4 6 2 6 -4 0 -5 6 -10 13 -11 6 0 41 -13 77
-28 36 -15 71 -27 78 -27 6 0 12 -4 12 -9 0 -5 4 -7 9 -4 5 4 11 2 13 -4 1 -5
15 -11 31 -12 15 -1 27 -6 27 -10 0 -4 8 -8 19 -8 10 0 35 -7 55 -15 20 -8 38
-15 41 -15 3 0 19 -7 36 -16 17 -8 37 -13 45 -10 8 3 14 0 14 -6 0 -6 3 -8 7
-5 3 4 11 3 17 -2 13 -10 108 -36 119 -33 4 1 7 -2 7 -6 0 -5 6 -9 13 -9 6 0
48 -10 91 -22 43 -13 91 -25 105 -28 14 -2 27 -8 29 -13 2 -5 10 -6 18 -3 8 3
20 0 28 -6 7 -6 15 -9 17 -6 3 2 29 -2 59 -10 30 -8 56 -12 58 -10 2 2 16 -1
31 -7 27 -10 46 -15 96 -23 43 -7 126 -23 155 -30 14 -3 39 -8 55 -10 17 -2
45 -6 63 -9 59 -9 157 -23 222 -31 22 -3 73 -8 200 -20 19 -2 35 -4 35 -5 0 0
54 -4 120 -7 249 -14 798 -7 965 11 19 2 67 7 105 11 105 11 110 11 250 30 28
4 65 8 82 9 18 0 33 4 33 8 0 4 15 8 33 8 52 0 67 3 67 11 0 4 8 6 17 5 10 -2
33 1 53 6 35 8 92 19 120 22 8 2 22 5 30 9 8 3 29 8 45 11 17 3 48 10 69 15
22 5 44 8 48 5 4 -3 8 -1 8 4 0 4 30 14 68 21 37 8 72 16 77 20 6 3 15 6 20 7
6 1 30 7 55 14 25 7 50 13 55 15 6 1 17 5 25 8 18 7 92 30 103 33 4 1 8 2 10
4 1 1 9 3 17 5 8 3 22 6 30 8 8 2 23 7 33 10 24 10 46 16 52 17 3 0 19 7 35
15 16 8 31 15 32 14 2 0 17 5 33 11 17 6 38 12 48 13 9 1 17 6 17 11 0 5 3 7
6 3 4 -3 20 1 36 9 17 9 39 17 51 20 11 2 23 7 26 11 6 8 27 15 49 16 6 0 12
4 12 9 0 4 7 8 15 8 9 0 27 7 40 16 14 9 25 13 25 10 0 -3 24 6 53 21 28 15
57 27 62 28 15 1 69 28 76 38 3 5 12 10 20 11 33 7 79 29 79 37 0 5 3 8 8 7 4
-1 26 8 50 20 23 12 42 19 42 15 0 -5 7 1 16 12 8 11 16 18 18 15 3 -6 76 30
94 48 8 7 18 10 23 7 5 -4 9 -1 9 5 0 6 5 8 10 5 6 -3 10 -1 10 4 0 6 6 11 13
11 7 0 22 8 33 18 11 9 26 18 33 20 8 2 33 16 56 32 23 16 45 26 49 23 3 -4 6
-1 6 5 0 7 7 12 15 12 8 0 15 5 15 11 0 5 5 7 10 4 6 -3 10 -1 10 4 0 6 5 11
11 11 7 0 18 8 26 18 8 9 11 10 7 2 -4 -8 37 17 92 55 54 37 104 68 111 68 7
0 10 3 8 7 -2 4 7 12 20 18 14 7 25 17 25 23 0 6 7 9 15 5 8 -3 15 -1 15 3 0
5 16 19 35 31 20 12 41 27 48 34 6 7 33 27 60 44 26 18 47 38 47 43 0 6 5 7
10 4 6 -3 10 -1 10 6 0 7 3 10 6 6 4 -3 20 7 36 23 16 17 33 30 37 30 4 0 24
15 43 34 20 19 38 33 40 30 3 -2 17 9 31 26 15 16 32 30 38 30 5 0 7 5 4 10
-6 10 9 15 30 10 6 -1 7 1 4 5 -8 7 37 55 51 55 5 0 13 6 17 14 4 8 25 28 45
44 21 16 34 33 30 37 -4 5 -2 5 4 2 12 -7 64 35 64 52 0 10 28 29 43 29 5 0
12 4 15 8 4 4 0 3 -8 -1 -8 -5 18 23 58 63 41 40 78 72 83 72 5 0 8 3 7 7 -3
11 52 68 65 68 7 0 12 5 12 12 0 14 22 40 56 66 13 9 20 17 16 17 -4 0 3 10
16 23 12 12 26 21 30 19 5 -1 6 1 3 6 -3 5 17 33 44 62 27 29 47 57 44 61 -3
5 3 6 12 2 12 -4 15 -3 10 5 -4 7 -1 15 8 18 9 3 16 13 16 21 0 8 5 11 10 8 6
-3 10 -1 10 5 0 11 18 33 75 93 17 18 31 36 32 40 0 5 11 21 24 35 13 15 24
31 24 35 0 5 9 15 19 23 11 8 16 14 10 14 -5 0 -1 5 9 11 9 5 17 15 17 20 0 6
6 16 13 23 22 23 62 77 78 106 9 16 19 27 23 23 5 -6 8 4 5 23 0 3 10 14 22
25 12 10 19 19 15 19 -4 0 -1 7 6 15 17 19 30 36 45 61 67 108 109 170 117
176 6 4 7 8 3 8 -5 0 0 12 10 28 10 15 25 39 33 55 7 15 17 27 22 27 4 0 8 5
8 10 0 6 11 28 24 49 14 21 22 42 19 45 -4 3 -1 6 5 6 7 0 12 7 12 15 0 8 5
15 10 15 6 0 9 3 9 8 -4 21 2 32 14 26 6 -4 9 -3 4 1 -4 5 6 32 22 61 17 28
27 55 24 58 -4 3 -2 6 4 6 5 0 18 20 29 45 10 25 22 45 27 45 5 0 7 6 5 12 -3
7 2 19 9 27 8 7 17 26 20 42 3 16 9 26 14 23 5 -3 6 2 3 10 -3 9 -2 16 3 16 6
0 16 18 23 40 7 22 18 40 23 40 6 0 7 3 4 7 -4 3 -1 13 6 21 10 13 9 14 -3 7
-8 -5 -5 4 8 19 12 16 22 34 22 40 0 6 7 25 16 41 9 17 17 37 19 45 2 8 17 47
33 85 49 118 53 128 55 158 1 9 5 17 9 17 4 0 8 9 8 19 0 11 5 23 10 26 6 3
10 17 10 31 0 13 5 24 12 24 6 0 9 3 6 6 -4 3 0 21 8 40 8 19 12 40 8 46 -5 7
-2 8 6 3 10 -6 12 -4 7 8 -3 9 -2 19 4 22 5 4 7 11 4 16 -4 5 -2 9 4 9 5 0 8
9 6 20 -2 11 0 20 6 20 5 0 9 12 9 26 0 14 4 22 10 19 6 -3 7 1 4 9 -3 9 -3
24 1 34 9 20 12 29 19 62 3 14 11 38 17 53 7 15 9 30 5 34 -3 3 -2 11 4 18 8
9 36 119 56 215 2 14 8 34 11 45 4 11 7 33 8 48 1 16 8 33 16 38 11 7 11 9 1
9 -7 0 -11 4 -8 8 6 11 14 48 31 147 3 22 9 54 12 70 9 52 13 79 17 120 3 22
8 58 11 80 3 22 8 60 11 85 2 25 7 65 10 90 3 25 7 68 9 95 2 28 4 50 5 50 2
0 12 221 14 295 0 36 5 68 11 72 7 5 7 8 0 8 -12 0 -13 340 0 360 5 8 4 11 -1
7 -6 -3 -11 27 -13 76 -2 45 -4 100 -6 122 -2 22 -6 78 -10 125 -3 47 -8 101
-11 120 -2 19 -6 55 -9 80 -8 78 -14 112 -19 118 -3 3 -1 11 5 19 7 7 7 13 2
13 -9 0 -22 70 -26 143 -1 15 -4 27 -7 27 -4 0 -6 10 -7 23 -1 12 -4 38 -8 57
-3 19 -8 44 -9 55 -2 11 -4 20 -6 20 -1 0 -4 14 -6 30 -2 17 -9 50 -14 75 -6
25 -12 54 -14 65 -2 11 -9 32 -14 46 -6 15 -9 29 -7 31 2 2 -2 24 -9 48 -8 25
-14 47 -14 50 0 3 -3 12 -6 20 -2 8 -8 29 -12 45 -4 17 -9 36 -11 43 -1 6 -5
18 -6 25 -2 6 -7 26 -11 42 -4 17 -12 40 -18 52 -6 13 -8 26 -5 29 4 4 0 19
-8 33 -8 14 -20 46 -27 71 -14 52 -13 51 -20 70 -16 40 -21 56 -24 65 -1 6
-14 40 -28 78 -14 37 -25 68 -25 70 0 1 -4 13 -9 27 -32 81 -50 127 -57 145
-5 11 -9 22 -10 25 -1 3 -9 22 -18 44 -9 21 -17 45 -17 52 0 8 -4 14 -10 14
-5 0 -10 4 -10 9 0 5 -17 44 -37 87 -20 44 -37 81 -38 84 -3 17 -71 146 -80
152 -5 4 -7 8 -3 8 4 0 -8 29 -27 64 -19 35 -31 66 -28 70 4 3 1 6 -5 6 -6 0
-19 17 -29 38 -9 20 -22 40 -27 44 -6 4 -7 8 -2 8 5 0 3 7 -4 15 -17 21 -49
76 -56 98 -4 9 -11 17 -16 17 -6 0 -7 7 -4 16 3 8 2 13 -2 10 -4 -3 -14 4 -21
16 -10 16 -10 19 1 12 7 -4 3 4 -9 18 -13 13 -23 29 -23 35 0 6 -7 14 -16 17
-9 4 -14 9 -11 13 4 3 -18 41 -48 84 -30 43 -55 83 -55 89 0 5 -5 10 -11 10
-5 0 -16 16 -24 34 -8 19 -23 40 -32 45 -10 6 -14 11 -10 11 5 0 -3 15 -17 33
-33 40 -35 43 -70 95 -16 23 -33 42 -38 42 -5 0 -7 4 -4 8 3 5 -4 15 -15 22
-10 8 -19 19 -19 24 0 5 -7 14 -14 20 -8 6 -16 17 -18 25 -2 8 -18 28 -35 45
-18 17 -33 36 -33 42 0 7 -7 15 -16 18 -8 3 -13 10 -9 15 3 5 -3 12 -12 15
-10 3 -29 23 -43 43 -14 20 -46 58 -72 85 -27 26 -48 49 -48 52 0 7 -53 67
-97 109 -23 22 -40 44 -37 49 3 5 2 7 -3 6 -11 -4 -73 56 -73 70 0 6 -10 16
-21 23 -12 6 -43 33 -69 60 -26 27 -53 49 -60 49 -7 0 -10 7 -6 15 3 8 2 14
-2 14 -18 -3 -32 2 -32 11 0 18 -38 53 -49 45 -6 -3 -11 0 -11 9 0 8 -4 16 -9
18 -8 3 -67 53 -154 131 -18 16 -50 43 -71 60 -22 18 -50 42 -63 55 -13 12
-27 22 -32 22 -4 0 -21 13 -37 30 -16 16 -33 30 -39 30 -5 0 -28 16 -50 36
-22 19 -52 43 -67 52 -16 9 -28 20 -28 24 0 4 -7 8 -15 8 -9 0 -18 7 -21 15
-4 8 -10 12 -15 9 -5 -3 -9 0 -9 5 0 6 -7 11 -15 11 -8 0 -15 5 -15 11 0 5 -4
7 -10 4 -5 -3 -10 -1 -10 5 0 6 -12 15 -26 20 -15 6 -22 14 -18 22 4 6 3 8 -4
4 -6 -3 -17 -1 -24 6 -8 7 -23 18 -33 25 -11 7 -47 29 -80 50 -33 20 -62 40
-65 45 -3 4 -21 14 -40 23 -49 23 -82 42 -89 52 -8 11 -63 37 -73 35 -5 -1 -8
3 -8 8 0 6 -7 10 -15 10 -8 0 -15 5 -15 10 0 6 -7 10 -15 10 -8 0 -15 5 -15
10 0 6 -9 10 -20 10 -11 0 -20 5 -20 11 0 5 -4 8 -9 5 -5 -3 -19 2 -32 12 -31
24 -201 108 -211 104 -5 -1 -8 2 -8 7 0 5 -22 17 -50 27 -27 10 -50 21 -50 25
0 4 -21 13 -46 20 -26 8 -49 19 -51 26 -3 6 -13 10 -23 8 -10 -2 -21 3 -24 11
-3 9 -10 12 -16 9 -5 -3 -10 -1 -10 5 0 6 -4 9 -9 5 -6 -3 -26 4 -45 15 -20
11 -39 20 -44 21 -17 3 -38 11 -54 20 -10 5 -25 9 -33 9 -8 0 -15 5 -15 10 0
6 -3 9 -7 8 -5 -1 -24 4 -43 11 -19 8 -41 13 -47 12 -7 -1 -13 2 -13 7 0 5 -7
9 -15 10 -8 1 -22 3 -30 4 -8 1 -15 4 -15 8 0 4 -6 7 -12 8 -7 0 -47 13 -88
27 -41 15 -82 29 -90 31 -8 2 -42 13 -75 24 -32 11 -69 22 -81 24 -12 3 -33
10 -46 17 -12 7 -23 11 -23 10 0 -7 -81 13 -92 22 -7 5 -13 7 -13 4 0 -3 -17
-1 -37 5 -21 5 -56 14 -78 19 -22 5 -49 11 -60 14 -11 3 -29 7 -40 9 -11 2
-40 9 -65 15 -25 5 -58 12 -75 15 -16 3 -41 8 -55 11 -31 6 -198 36 -225 40
-20 3 -57 8 -190 25 -121 16 -149 19 -358 36 -59 6 -745 13 -749 9z"/>
</g>
</svg>
